<?xml version="1.0" encoding="UTF-8"?>
<svg id="_图层_1" data-name="图层 1" xmlns="http://www.w3.org/2000/svg" xmlns:xlink="http://www.w3.org/1999/xlink" viewBox="0 0 318.07 98.67">
  <defs>
    <style>
      .cls-1 {
        font-family: ArialMT, Arial;
        font-size: 12px;
      }

      .cls-1, .cls-2 {
        fill: #231815;
      }

      .cls-3 {
        fill: #fff;
      }

      .cls-4 {
        fill: url(#_未命名的渐变_55);
      }
    </style>
    <linearGradient id="_未命名的渐变_55" data-name="未命名的渐变 55" x1="-7456.13" y1="-2643.68" x2="-7396.97" y2="-2643.68" gradientTransform="translate(7456.13 2690.28)" gradientUnits="userSpaceOnUse">
      <stop offset="0" stop-color="#57c1d9"/>
      <stop offset="1" stop-color="#28b6ad"/>
    </linearGradient>
  </defs>
  <g>
    <rect class="cls-4" x="0" y="17.03" width="59.16" height="59.16" rx="9.49" ry="9.49" transform="translate(59.16 93.21) rotate(-180)"/>
    <path class="cls-3" d="M16.94,50.19h8.81c.55,0,.99.44.99.98s-.44.98-.99.98h-5.7c-.02.21-.02.43-.02.66,0,5.23,4.27,9.46,9.54,9.46s9.54-4.24,9.54-9.46c0-.47-.04-.94-.11-1.4-.72-4.62-4.72-8.04-9.44-8.06v1.96l-7.24-3.59,7.24-3.59v1.96c6.03.03,11.23,4.19,12.53,10.03,2.49-.41,4.38-2.46,4.56-4.96.19-2.5-1.37-4.8-3.77-5.58-.38-.12-.65-.46-.68-.86-.1-1.56-.91-2.99-2.2-3.89-1.47-1.02-3.37-1.2-5.01-.48-.47.2-1.02.02-1.26-.43-1.8-3.29-5.62-4.94-9.27-4.02-3.65.93-6.21,4.2-6.19,7.94,0,.76.11,1.52.33,2.25.09.32.01.65-.2.9-.21.25-.54.38-.87.34-.19-.03-.39-.04-.59-.04-2.48,0-4.49,1.99-4.49,4.45s2.01,4.45,4.49,4.45h0ZM10.49,45.73c0-3.33,2.57-6.11,5.92-6.39-.08-.5-.12-1-.12-1.51-.01-4.47,2.94-8.43,7.26-9.71,4.32-1.29,8.99.39,11.46,4.13,1.97-.59,4.11-.3,5.85.79,1.74,1.09,2.92,2.88,3.24,4.9,3.07,1.28,4.9,4.43,4.5,7.7-.4,3.28-2.95,5.89-6.24,6.4.01.25.03.5.03.76,0,7.02-5.74,12.72-12.83,12.72s-12.83-5.69-12.83-12.72c0-.23.01-.44.03-.67-3.5-.1-6.28-2.93-6.28-6.4"/>
  </g>
  <g>
    <g>
      <path class="cls-2" d="M84.15,20.6h9.18v2.49h-6.19v3.46h5.26v2.51h-5.26v4h6.41v2.51h-9.4v-14.96Z"/>
      <path class="cls-2" d="M96.34,32.38v-12.96h2.95v13.1c0,.67.32.89.61.89.12,0,.2,0,.4-.04l.36,2.2c-.34.14-.85.26-1.54.26-2.06,0-2.79-1.35-2.79-3.46Z"/>
      <path class="cls-2" d="M101.99,29.92c0-3.78,2.61-5.96,5.44-5.96s5.44,2.18,5.44,5.96-2.61,5.92-5.44,5.92-5.44-2.18-5.44-5.92ZM109.84,29.92c0-2.14-.87-3.54-2.41-3.54s-2.41,1.4-2.41,3.54.87,3.5,2.41,3.5,2.41-1.37,2.41-3.5Z"/>
      <path class="cls-2" d="M122.2,36.31l.12-1.82c-.77.79-1.88,1.35-2.99,1.35-2.81,0-4.63-2.22-4.63-5.92s2.31-5.96,4.75-5.96c1.25,0,2.16.44,3.07,1.39h.08l.24-1.11h2.32v15.67h-2.97v-3.6ZM122.2,32.22v-4.97c-.69-.63-1.39-.85-2.1-.85-1.27,0-2.34,1.21-2.34,3.48s.85,3.52,2.34,3.52c.79,0,1.46-.32,2.1-1.17Z"/>
      <path class="cls-2" d="M127.86,28.14c0-4.93,3.17-7.82,6.95-7.82,1.9,0,3.42.91,4.39,1.92l-1.58,1.9c-.75-.73-1.62-1.25-2.75-1.25-2.26,0-3.96,1.94-3.96,5.15s1.54,5.22,3.9,5.22c1.27,0,2.28-.61,3.09-1.48l1.58,1.86c-1.23,1.43-2.83,2.2-4.77,2.2-3.78,0-6.85-2.71-6.85-7.7Z"/>
      <path class="cls-2" d="M141.64,32.38v-12.96h2.95v13.1c0,.67.32.89.61.89.12,0,.2,0,.4-.04l.36,2.2c-.34.14-.85.26-1.54.26-2.06,0-2.79-1.35-2.79-3.46Z"/>
      <path class="cls-2" d="M147.3,29.92c0-3.78,2.61-5.96,5.44-5.96s5.44,2.18,5.44,5.96-2.61,5.92-5.44,5.92-5.44-2.18-5.44-5.92ZM155.14,29.92c0-2.14-.87-3.54-2.41-3.54s-2.41,1.4-2.41,3.54.87,3.5,2.41,3.5,2.41-1.37,2.41-3.5Z"/>
      <path class="cls-2" d="M160.54,31.31v-7.07h2.97v6.69c0,1.76.49,2.36,1.58,2.36.93,0,1.54-.4,2.3-1.41v-7.64h2.97v11.32h-2.42l-.22-1.62h-.08c-.97,1.15-2.06,1.9-3.62,1.9-2.42,0-3.48-1.7-3.48-4.53Z"/>
      <path class="cls-2" d="M172.88,29.92c0-3.7,2.31-5.96,4.75-5.96,1.27,0,2.06.49,2.87,1.23l-.12-1.78v-3.98h2.97v16.13h-2.41l-.24-1.17h-.06c-.83.81-1.96,1.46-3.13,1.46-2.81,0-4.63-2.22-4.63-5.92ZM180.38,32.22v-4.97c-.69-.63-1.39-.85-2.1-.85-1.27,0-2.34,1.21-2.34,3.48s.85,3.52,2.34,3.52c.79,0,1.46-.32,2.1-1.17Z"/>
    </g>
    <text class="cls-1" transform="translate(83.41 59.75)"><tspan x="0" y="0">Cloud-native Serverless</tspan><tspan x="0" y="18">Data Service Platform</tspan></text>
  </g>
</svg>